{
  "accessors": [
    {
      "bufferView": 2,
      "componentType": 5126,
      "count": 2566,
      "max": [
        1.5651400089263916,
        7.551720142364502,
        3.8223700523376465
      ],
      "min": [
        -1.5651400089263916,
        -7.369229793548584,
        -0.00023999999393709004
      ],
      "type": "VEC3"
    },
    {
      "bufferView": 2,
      "byteOffset": 30792,
      "componentType": 5126,
      "count": 2566,
      "max": [
        1.0,
        1.0,
        1.0
      ],
      "min": [
        -1.0,
        -1.0,
        -1.0
      ],
      "type": "VEC3"
    },
    {
      "bufferView": 1,
      "componentType": 5126,
      "count": 2566,
      "max": [
        0.9908199906349182,
        0.9940699934959412
      ],
      "min": [
        0.007410000078380108,
        0.014870000071823597
      ],
      "type": "VEC2"
    },
    {
      "bufferView": 1,
      "byteOffset": 20528,
      "componentType": 5126,
      "count": 2566,
      "max": [
        0.9908199906349182,
        0.9940699934959412
      ],
      "min": [
        0.007410000078380108,
        0.014870000071823597
      ],
      "type": "VEC2"
    },
    {
      "bufferView": 1,
      "byteOffset": 41056,
      "componentType": 5126,
      "count": 2566,
      "max": [
        0.9908199906349182,
        0.9940699934959412
      ],
      "min": [
        0.007410000078380108,
        0.014870000071823597
      ],
      "type": "VEC2"
    },
    {
      "bufferView": 0,
      "componentType": 5125,
      "count": 4290,
      "type": "SCALAR"
    },
    {
      "bufferView": 2,
      "byteOffset": 61584,
      "componentType": 5126,
      "count": 380,
      "max": [
        1.1749999523162842,
        1.2118899822235107,
        3.635849952697754
      ],
      "min": [
        -1.1749999523162842,
        -1.2118300199508667,
        -0.00023999999393709004
      ],
      "type": "VEC3"
    },
    {
      "bufferView": 2,
      "byteOffset": 66144,
      "componentType": 5126,
      "count": 380,
      "max": [
        1.0,
        1.0,
        1.0
      ],
      "min": [
        -1.0,
        -1.0,
        -1.0
      ],
      "type": "VEC3"
    },
    {
      "bufferView": 1,
      "byteOffset": 61584,
      "componentType": 5126,
      "count": 380,
      "max": [
        0.9768999814987183,
        0.8867800235748291
      ],
      "min": [
        0.06990999728441238,
        0.03125999867916107
      ],
      "type": "VEC2"
    },
    {
      "bufferView": 0,
      "byteOffset": 17160,
      "componentType": 5125,
      "count": 822,
      "type": "SCALAR"
    },
    {
      "bufferView": 2,
      "byteOffset": 70704,
      "componentType": 5126,
      "count": 2566,
      "max": [
        1.5651400089263916,
        7.551720142364502,
        3.8223700523376465
      ],
      "min": [
        -1.5651400089263916,
        -7.369229793548584,
        -0.00023999999393709004
      ],
      "type": "VEC3"
    },
    {
      "bufferView": 2,
      "byteOffset": 101496,
      "componentType": 5126,
      "count": 2566,
      "max": [
        1.0,
        1.0,
        1.0
      ],
      "min": [
        -1.0,
        -1.0,
        -1.0
      ],
      "type": "VEC3"
    },
    {
      "bufferView": 1,
      "byteOffset": 64624,
      "componentType": 5126,
      "count": 2566,
      "max": [
        0.9908199906349182,
        0.9940699934959412
      ],
      "min": [
        0.007410000078380108,
        0.014870000071823597
      ],
      "type": "VEC2"
    },
    {
      "bufferView": 1,
      "byteOffset": 85152,
      "componentType": 5126,
      "count": 2566,
      "max": [
        0.9908199906349182,
        0.9940699934959412
      ],
      "min": [
        0.007410000078380108,
        0.014870000071823597
      ],
      "type": "VEC2"
    },
    {
      "bufferView": 1,
      "byteOffset": 105680,
      "componentType": 5126,
      "count": 2566,
      "max": [
        0.9908199906349182,
        0.9940699934959412
      ],
      "min": [
        0.007410000078380108,
        0.014870000071823597
      ],
      "type": "VEC2"
    },
    {
      "bufferView": 0,
      "byteOffset": 20448,
      "componentType": 5125,
      "count": 4290,
      "type": "SCALAR"
    }
  ],
  "asset": {
    "extras": {
      "author": "accessviolation (https://sketchfab.com/accessviolation)",
      "license": "CC-BY-NC-SA-4.0 (http://creativecommons.org/licenses/by-nc-sa/4.0/)",
      "source": "https://sketchfab.com/3d-models/s12-metro-for-cities-skylines-e5eef97cc78340d49fb6d4b7f6e77c52",
      "title": "S1/2 Metro for Cities Skylines"
    },
    "generator": "Sketchfab-14.34.0",
    "version": "2.0"
  },
  "bufferViews": [
    {
      "buffer": 0,
      "byteLength": 37608,
      "name": "floatBufferViews",
      "target": 34963
    },
    {
      "buffer": 0,
      "byteLength": 126208,
      "byteOffset": 37608,
      "byteStride": 8,
      "name": "floatBufferViews",
      "target": 34962
    },
    {
      "buffer": 0,
      "byteLength": 132288,
      "byteOffset": 163816,
      "byteStride": 12,
      "name": "floatBufferViews",
      "target": 34962
    }
  ],
  "buffers": [
    {
      "byteLength": 296104,
      "uri": "scene.bin"
    }
  ],
  "images": [
    {
      "uri": "textures/Material_baseColor.png"
    },
    {
      "uri": "textures/Material.001_baseColor.png"
    }
  ],
  "materials": [
    {
      "alphaMode": "BLEND",
      "doubleSided": true,
      "name": "Material",
      "pbrMetallicRoughness": {
        "baseColorTexture": {
          "index": 0
        },
        "metallicFactor": 0.0
      }
    },
    {
      "doubleSided": true,
      "name": "Material.001",
      "pbrMetallicRoughness": {
        "baseColorTexture": {
          "index": 1
        },
        "metallicFactor": 0.0
      }
    }
  ],
  "meshes": [
    {
      "name": "Sneltram.Bak.Metro_0",
      "primitives": [
        {
          "attributes": {
            "NORMAL": 1,
            "POSITION": 0,
            "TEXCOORD_0": 2,
            "TEXCOORD_1": 3,
            "TEXCOORD_2": 4
          },
          "indices": 5,
          "material": 0,
          "mode": 4
        }
      ]
    },
    {
      "name": "Sneltram.Draaistel.001_0",
      "primitives": [
        {
          "attributes": {
            "NORMAL": 7,
            "POSITION": 6,
            "TEXCOORD_0": 8
          },
          "indices": 9,
          "material": 1,
          "mode": 4
        }
      ]
    },
    {
      "name": "Sneltram.Bak.Metro.001_0",
      "primitives": [
        {
          "attributes": {
            "NORMAL": 11,
            "POSITION": 10,
            "TEXCOORD_0": 12,
            "TEXCOORD_1": 13,
            "TEXCOORD_2": 14
          },
          "indices": 15,
          "material": 0,
          "mode": 4
        }
      ]
    }
  ],
  "nodes": [
    {
      "children": [
        1
      ],
      "matrix": [
        2.2204460823375376e-17,
        -0.00017732148090115872,
        0.1999999195337283,
        0.0,
        0.20000000298023224,
        4.930380731099721e-33,
        -2.2204460823375376e-17,
        0.0,
        5.421010943206879e-20,
        0.1999999195337283,
        0.00017732148090115872,
        0.0,
        0.0,
        0.0,
        0.0,
        1.0
      ],
      "name": "Sketchfab_model"
    },
    {
      "children": [
        2,
        4,
        6,
        8
      ],
      "name": "Root"
    },
    {
      "children": [
        3
      ],
      "matrix": [
        1.0,
        0.0,
        0.0,
        0.0,
        0.0,
        1.0,
        0.0,
        0.0,
        0.0,
        0.0,
        1.0,
        0.0,
        -6.39873,
        10.1355,
        -7.0544899999999995,
        1.0
      ],
      "name": "Hemi"
    },
    {
      "name": "Hemi"
    },
    {
      "children": [
        5
      ],
      "matrix": [
        1.0,
        0.0,
        0.0,
        0.0,
        0.0,
        1.0,
        0.0,
        0.0,
        0.0,
        0.0,
        1.0,
        0.0,
        0.0,
        7.5515,
        0.0,
        1.0
      ],
      "name": "Sneltram.Bak.Metro"
    },
    {
      "mesh": 0,
      "name": "Sneltram.Bak.Metro_0"
    },
    {
      "children": [
        7
      ],
      "name": "Sneltram.Draaistel.001"
    },
    {
      "mesh": 1,
      "name": "Sneltram.Draaistel.001_0"
    },
    {
      "children": [
        9
      ],
      "matrix": [
        -1.0,
        0.0,
        0.0,
        0.0,
        -0.0,
        -1.0,
        0.0,
        0.0,
        0.0,
        0.0,
        1.0,
        0.0,
        0.0,
        -7.5515,
        0.0,
        1.0
      ],
      "name": "Sneltram.Bak.Metro.001"
    },
    {
      "mesh": 2,
      "name": "Sneltram.Bak.Metro.001_0"
    }
  ],
  "samplers": [
    {
      "magFilter": 9729,
      "minFilter": 9987,
      "wrapS": 10497,
      "wrapT": 10497
    }
  ],
  "scene": 0,
  "scenes": [
    {
      "name": "Sketchfab_Scene",
      "nodes": [
        0
      ]
    }
  ],
  "textures": [
    {
      "sampler": 0,
      "source": 0
    },
    {
      "sampler": 0,
      "source": 1
    }
  ]
}
